<mxfile host="Electron" modified="2023-11-13T17:37:45.204Z" agent="Mozilla/5.0 (Windows NT 10.0; Win64; x64) AppleWebKit/537.36 (KHTML, like Gecko) draw.io/22.0.3 Chrome/114.0.5735.289 Electron/25.8.4 Safari/537.36" etag="AYySQ9EbKCxYWJFnivNl" version="22.0.3" type="device" pages="2">
  <diagram name="printRow" id="lazlIpi1OaGIUPXyTEgX">
    <mxGraphModel dx="241" dy="154" grid="0" gridSize="10" guides="1" tooltips="1" connect="1" arrows="1" fold="1" page="1" pageScale="1" pageWidth="827" pageHeight="1169" background="#FFFFFF" math="0" shadow="0">
      <root>
        <mxCell id="0" />
        <mxCell id="1" parent="0" />
        <mxCell id="pqVoprF81PtelwpqZ3gJ-7" value="" style="edgeStyle=orthogonalEdgeStyle;rounded=0;orthogonalLoop=1;jettySize=auto;html=1;endArrow=none;endFill=0;" edge="1" parent="1" source="pqVoprF81PtelwpqZ3gJ-5" target="pqVoprF81PtelwpqZ3gJ-6">
          <mxGeometry relative="1" as="geometry" />
        </mxCell>
        <mxCell id="pqVoprF81PtelwpqZ3gJ-5" value="printRow(&lt;br&gt;arr, row, cols)" style="strokeWidth=2;html=1;shape=mxgraph.flowchart.terminator;whiteSpace=wrap;fontSize=10;" vertex="1" parent="1">
          <mxGeometry x="364" y="33" width="100" height="50" as="geometry" />
        </mxCell>
        <mxCell id="pqVoprF81PtelwpqZ3gJ-11" value="" style="edgeStyle=orthogonalEdgeStyle;rounded=0;orthogonalLoop=1;jettySize=auto;html=1;endArrow=none;endFill=0;" edge="1" parent="1" source="pqVoprF81PtelwpqZ3gJ-6" target="pqVoprF81PtelwpqZ3gJ-10">
          <mxGeometry relative="1" as="geometry" />
        </mxCell>
        <mxCell id="pqVoprF81PtelwpqZ3gJ-6" value="j = 0" style="rounded=0;whiteSpace=wrap;html=1;absoluteArcSize=1;arcSize=14;strokeWidth=2;" vertex="1" parent="1">
          <mxGeometry x="376" y="117" width="75" height="50" as="geometry" />
        </mxCell>
        <mxCell id="pqVoprF81PtelwpqZ3gJ-14" value="" style="edgeStyle=orthogonalEdgeStyle;rounded=0;orthogonalLoop=1;jettySize=auto;html=1;endArrow=none;endFill=0;" edge="1" parent="1" source="pqVoprF81PtelwpqZ3gJ-8" target="pqVoprF81PtelwpqZ3gJ-13">
          <mxGeometry relative="1" as="geometry" />
        </mxCell>
        <mxCell id="pqVoprF81PtelwpqZ3gJ-8" value="arr[row][j]" style="shape=parallelogram;html=1;strokeWidth=2;perimeter=parallelogramPerimeter;whiteSpace=wrap;rounded=0;arcSize=12;size=0.23;fontSize=10;" vertex="1" parent="1">
          <mxGeometry x="471" y="298" width="100" height="50" as="geometry" />
        </mxCell>
        <mxCell id="pqVoprF81PtelwpqZ3gJ-12" style="edgeStyle=orthogonalEdgeStyle;rounded=0;orthogonalLoop=1;jettySize=auto;html=1;exitX=1;exitY=0.5;exitDx=0;exitDy=0;exitPerimeter=0;" edge="1" parent="1" source="pqVoprF81PtelwpqZ3gJ-10" target="pqVoprF81PtelwpqZ3gJ-8">
          <mxGeometry relative="1" as="geometry" />
        </mxCell>
        <mxCell id="pqVoprF81PtelwpqZ3gJ-20" value="&amp;nbsp;да&amp;nbsp;" style="edgeLabel;html=1;align=center;verticalAlign=middle;resizable=0;points=[];" vertex="1" connectable="0" parent="pqVoprF81PtelwpqZ3gJ-12">
          <mxGeometry x="-0.4734" relative="1" as="geometry">
            <mxPoint as="offset" />
          </mxGeometry>
        </mxCell>
        <mxCell id="pqVoprF81PtelwpqZ3gJ-10" value="j &amp;lt; cols?" style="strokeWidth=2;html=1;shape=mxgraph.flowchart.decision;whiteSpace=wrap;fontSize=10;" vertex="1" parent="1">
          <mxGeometry x="364" y="225" width="100" height="50" as="geometry" />
        </mxCell>
        <mxCell id="pqVoprF81PtelwpqZ3gJ-13" value="j++;" style="rounded=0;whiteSpace=wrap;html=1;absoluteArcSize=1;arcSize=14;strokeWidth=2;" vertex="1" parent="1">
          <mxGeometry x="484" y="373" width="75" height="50" as="geometry" />
        </mxCell>
        <mxCell id="pqVoprF81PtelwpqZ3gJ-15" style="edgeStyle=orthogonalEdgeStyle;rounded=0;orthogonalLoop=1;jettySize=auto;html=1;exitX=0.5;exitY=1;exitDx=0;exitDy=0;" edge="1" parent="1" source="pqVoprF81PtelwpqZ3gJ-13">
          <mxGeometry relative="1" as="geometry">
            <mxPoint x="414" y="195" as="targetPoint" />
            <Array as="points">
              <mxPoint x="522" y="439" />
              <mxPoint x="621" y="439" />
              <mxPoint x="621" y="195" />
            </Array>
          </mxGeometry>
        </mxCell>
        <mxCell id="pqVoprF81PtelwpqZ3gJ-16" value="Конец" style="strokeWidth=2;html=1;shape=mxgraph.flowchart.terminator;whiteSpace=wrap;fontSize=10;" vertex="1" parent="1">
          <mxGeometry x="364" y="484" width="100" height="50" as="geometry" />
        </mxCell>
        <mxCell id="pqVoprF81PtelwpqZ3gJ-17" style="edgeStyle=orthogonalEdgeStyle;rounded=0;orthogonalLoop=1;jettySize=auto;html=1;entryX=0.5;entryY=0;entryDx=0;entryDy=0;entryPerimeter=0;endArrow=none;endFill=0;" edge="1" parent="1" source="pqVoprF81PtelwpqZ3gJ-10" target="pqVoprF81PtelwpqZ3gJ-16">
          <mxGeometry relative="1" as="geometry" />
        </mxCell>
      </root>
    </mxGraphModel>
  </diagram>
  <diagram id="10tTQHbYgM8TdnQf92Zm" name="removeColInPlace">
    <mxGraphModel dx="1400" dy="892" grid="0" gridSize="10" guides="1" tooltips="1" connect="1" arrows="1" fold="1" page="1" pageScale="1" pageWidth="827" pageHeight="1169" background="#FFFFFF" math="0" shadow="0">
      <root>
        <mxCell id="0" />
        <mxCell id="1" parent="0" />
        <mxCell id="CQCQyCY36WCMHCoO0hTo-2" value="" style="edgeStyle=orthogonalEdgeStyle;rounded=0;orthogonalLoop=1;jettySize=auto;html=1;endArrow=none;endFill=0;" edge="1" parent="1" source="v7yO7RKpQJi8Te2AAYnL-1" target="uFneFMzXvsfTCwJ67zI6-1">
          <mxGeometry relative="1" as="geometry" />
        </mxCell>
        <mxCell id="v7yO7RKpQJi8Te2AAYnL-1" value="removeColInPlace(&lt;br&gt;arr, rows, cols, col)" style="strokeWidth=2;html=1;shape=mxgraph.flowchart.terminator;whiteSpace=wrap;fontSize=10;" vertex="1" parent="1">
          <mxGeometry x="234" y="55" width="100" height="50" as="geometry" />
        </mxCell>
        <mxCell id="CQCQyCY36WCMHCoO0hTo-3" value="" style="edgeStyle=orthogonalEdgeStyle;rounded=0;orthogonalLoop=1;jettySize=auto;html=1;endArrow=none;endFill=0;" edge="1" parent="1" source="uFneFMzXvsfTCwJ67zI6-1" target="uFneFMzXvsfTCwJ67zI6-2">
          <mxGeometry relative="1" as="geometry" />
        </mxCell>
        <mxCell id="uFneFMzXvsfTCwJ67zI6-1" value="i = 0;" style="rounded=0;whiteSpace=wrap;html=1;absoluteArcSize=1;arcSize=14;strokeWidth=2;" vertex="1" parent="1">
          <mxGeometry x="246" y="149" width="75" height="50" as="geometry" />
        </mxCell>
        <mxCell id="CQCQyCY36WCMHCoO0hTo-5" style="edgeStyle=orthogonalEdgeStyle;rounded=0;orthogonalLoop=1;jettySize=auto;html=1;entryX=0.5;entryY=0;entryDx=0;entryDy=0;" edge="1" parent="1" source="uFneFMzXvsfTCwJ67zI6-2" target="uFneFMzXvsfTCwJ67zI6-3">
          <mxGeometry relative="1" as="geometry" />
        </mxCell>
        <mxCell id="hQnhGPMUHmdMoGP3KtjC-1" value="&amp;nbsp;да&amp;nbsp;" style="edgeLabel;html=1;align=center;verticalAlign=middle;resizable=0;points=[];" vertex="1" connectable="0" parent="CQCQyCY36WCMHCoO0hTo-5">
          <mxGeometry x="-0.4073" y="1" relative="1" as="geometry">
            <mxPoint x="-4" y="1" as="offset" />
          </mxGeometry>
        </mxCell>
        <mxCell id="uFneFMzXvsfTCwJ67zI6-2" value="i &amp;lt; rows?" style="strokeWidth=2;html=1;shape=mxgraph.flowchart.decision;whiteSpace=wrap;fontSize=10;" vertex="1" parent="1">
          <mxGeometry x="234" y="231" width="100" height="50" as="geometry" />
        </mxCell>
        <mxCell id="uFneFMzXvsfTCwJ67zI6-3" value="j = 0;" style="rounded=0;whiteSpace=wrap;html=1;absoluteArcSize=1;arcSize=14;strokeWidth=2;" vertex="1" parent="1">
          <mxGeometry x="377" y="310" width="75" height="50" as="geometry" />
        </mxCell>
        <mxCell id="CQCQyCY36WCMHCoO0hTo-7" style="edgeStyle=orthogonalEdgeStyle;rounded=0;orthogonalLoop=1;jettySize=auto;html=1;entryX=0.5;entryY=0;entryDx=0;entryDy=0;endArrow=none;endFill=0;" edge="1" parent="1" source="uFneFMzXvsfTCwJ67zI6-4" target="uFneFMzXvsfTCwJ67zI6-7">
          <mxGeometry relative="1" as="geometry" />
        </mxCell>
        <mxCell id="CQCQyCY36WCMHCoO0hTo-8" style="edgeStyle=orthogonalEdgeStyle;rounded=0;orthogonalLoop=1;jettySize=auto;html=1;entryX=0.5;entryY=0;entryDx=0;entryDy=0;" edge="1" parent="1" source="uFneFMzXvsfTCwJ67zI6-4" target="uFneFMzXvsfTCwJ67zI6-5">
          <mxGeometry relative="1" as="geometry" />
        </mxCell>
        <mxCell id="hQnhGPMUHmdMoGP3KtjC-2" value="&amp;nbsp;да&amp;nbsp;" style="edgeLabel;html=1;align=center;verticalAlign=middle;resizable=0;points=[];" vertex="1" connectable="0" parent="CQCQyCY36WCMHCoO0hTo-8">
          <mxGeometry x="-0.566" relative="1" as="geometry">
            <mxPoint as="offset" />
          </mxGeometry>
        </mxCell>
        <mxCell id="uFneFMzXvsfTCwJ67zI6-4" value="j &amp;lt; cols - 1?" style="strokeWidth=2;html=1;shape=mxgraph.flowchart.decision;whiteSpace=wrap;fontSize=10;" vertex="1" parent="1">
          <mxGeometry x="365" y="421" width="100" height="50" as="geometry" />
        </mxCell>
        <mxCell id="CQCQyCY36WCMHCoO0hTo-9" value="" style="edgeStyle=orthogonalEdgeStyle;rounded=0;orthogonalLoop=1;jettySize=auto;html=1;endArrow=none;endFill=0;" edge="1" parent="1" source="uFneFMzXvsfTCwJ67zI6-5" target="uFneFMzXvsfTCwJ67zI6-6">
          <mxGeometry relative="1" as="geometry" />
        </mxCell>
        <mxCell id="uFneFMzXvsfTCwJ67zI6-5" value="arr[i][j] = &lt;br&gt;arr[i][j + 1];" style="rounded=0;whiteSpace=wrap;html=1;absoluteArcSize=1;arcSize=14;strokeWidth=2;" vertex="1" parent="1">
          <mxGeometry x="488" y="508" width="75" height="50" as="geometry" />
        </mxCell>
        <mxCell id="CQCQyCY36WCMHCoO0hTo-11" style="edgeStyle=orthogonalEdgeStyle;rounded=0;orthogonalLoop=1;jettySize=auto;html=1;exitX=0.5;exitY=1;exitDx=0;exitDy=0;" edge="1" parent="1" source="uFneFMzXvsfTCwJ67zI6-6">
          <mxGeometry relative="1" as="geometry">
            <mxPoint x="415" y="389" as="targetPoint" />
            <Array as="points">
              <mxPoint x="525" y="671" />
              <mxPoint x="662" y="671" />
              <mxPoint x="662" y="389" />
            </Array>
          </mxGeometry>
        </mxCell>
        <mxCell id="uFneFMzXvsfTCwJ67zI6-6" value="j++;" style="rounded=0;whiteSpace=wrap;html=1;absoluteArcSize=1;arcSize=14;strokeWidth=2;" vertex="1" parent="1">
          <mxGeometry x="488" y="600" width="75" height="50" as="geometry" />
        </mxCell>
        <mxCell id="CQCQyCY36WCMHCoO0hTo-12" style="edgeStyle=orthogonalEdgeStyle;rounded=0;orthogonalLoop=1;jettySize=auto;html=1;exitX=0.5;exitY=1;exitDx=0;exitDy=0;" edge="1" parent="1" source="uFneFMzXvsfTCwJ67zI6-7">
          <mxGeometry relative="1" as="geometry">
            <mxPoint x="284" y="213" as="targetPoint" />
            <Array as="points">
              <mxPoint x="415" y="763" />
              <mxPoint x="784" y="763" />
              <mxPoint x="784" y="213" />
            </Array>
          </mxGeometry>
        </mxCell>
        <mxCell id="uFneFMzXvsfTCwJ67zI6-7" value="i++;" style="rounded=0;whiteSpace=wrap;html=1;absoluteArcSize=1;arcSize=14;strokeWidth=2;" vertex="1" parent="1">
          <mxGeometry x="378" y="690" width="75" height="50" as="geometry" />
        </mxCell>
        <mxCell id="CQCQyCY36WCMHCoO0hTo-1" value="Конец" style="strokeWidth=2;html=1;shape=mxgraph.flowchart.terminator;whiteSpace=wrap;fontSize=10;" vertex="1" parent="1">
          <mxGeometry x="234" y="865" width="100" height="50" as="geometry" />
        </mxCell>
        <mxCell id="CQCQyCY36WCMHCoO0hTo-4" style="edgeStyle=orthogonalEdgeStyle;rounded=0;orthogonalLoop=1;jettySize=auto;html=1;entryX=0.5;entryY=0;entryDx=0;entryDy=0;entryPerimeter=0;endArrow=none;endFill=0;" edge="1" parent="1" source="uFneFMzXvsfTCwJ67zI6-2" target="CQCQyCY36WCMHCoO0hTo-1">
          <mxGeometry relative="1" as="geometry" />
        </mxCell>
        <mxCell id="CQCQyCY36WCMHCoO0hTo-6" style="edgeStyle=orthogonalEdgeStyle;rounded=0;orthogonalLoop=1;jettySize=auto;html=1;entryX=0.5;entryY=0;entryDx=0;entryDy=0;entryPerimeter=0;endArrow=none;endFill=0;" edge="1" parent="1" source="uFneFMzXvsfTCwJ67zI6-3" target="uFneFMzXvsfTCwJ67zI6-4">
          <mxGeometry relative="1" as="geometry" />
        </mxCell>
      </root>
    </mxGraphModel>
  </diagram>
</mxfile>
